{"title":"Daffy Duck's Quackbusters (1988) DVD RIP ","uid":9647876,"size":1195919263,"categoryP":"video","categoryS":"movies","magnet":"?xt=urn:btih:7f8c55e069050898c690caa3f54a16fd0093ee13&amp;dn=+Daffy+Duck%27s+Quackbusters+%281988%29+DVD+RIP+&amp;tr=udp%3A%2F%2Ftracker.openbittorrent.com%3A80&amp;tr=udp%3A%2F%2Fopen.demonii.com%3A1337&amp;tr=udp%3A%2F%2Ftracker.coppersurfer.tk%3A6969&amp;tr=udp%3A%2F%2Fexodus.desync.com%3A6969","seeders":3,"leechers":1,"uploader":"jmanwf","files":2,"time":1393033385,"description":"Storyline\n\nIn this feature-length film combining footage from classic Warner Brothers cartoon shorts with newly animated bridging sequences, Daffy Duck, after having induced laughter in an ailing millionaire and forestalled the millionaire's death for a time (as chronicled in Daffy Dilly (1948), is the beneficiary for the deceased millionaire's assets. But the millionaire's will clearly stipulates that Daffy must use the money for the common good, by providing a service, and should Daffy think of pursuing selfish aims, the millionaire's ghost will &quot;repossess&quot; his millions by making them disappear from Earthly existence. Under the pretense of community service, Daffy opens an exorcism agency and employs Porky Pig, Sylvester Cat, and Bugs Bunny to track and eliminate ghosts, ghouls, and other monsters, while Daffy secretly schemes to use his learned &quot;ghost-busting&quot; talents to rid himself of the millionaire's \n\n &lt;a href=&quot;\nhttp://www.imdb.com/title/tt0094939/&quot; rel=&quot;nofollow&quot; target=&quot;_NEW&quot;&gt;\nhttp://www.imdb.com/title/tt0094939/&lt;/a&gt;\n\n\nFormat                                   : MPEG-4\nFormat profile                           : Base Media\nCodec ID                                 : isom\nFile size                                : 1.11 GiB\nDuration                                 : 1h 18mn\nOverall bit rate mode                    : Variable\nOverall bit rate                         : 2 017 Kbps\nMovie name                               : Daffy Duck's Quackbusters\nPerformer                                : Greg Ford, Friz Freleng, Chuck Jones, Terry Lennon &amp; Robert McKimson\nGenre                                    : Comedy\nDescription                              : Daffy Duck returns to the spotlight once more to guide us through further episodes of cartoon comedy brilliance in this send-up of the feature film &quot;Ghostbusters.&quot; After he inherits a million dollars from the estate of J.B. Cubish, Daffy and his pals Bugs\nRecorded date                            : UTC 2009-01-01 08:00:00\nTagged date                              : UTC 2014-02-21 06:20:27\nCover                                    : Yes\nLongDescription                          : Daffy Duck returns to the spotlight once more to guide us through further episodes of cartoon comedy brilliance in this send-up of the feature film &quot;Ghostbusters.&quot; After he inherits a million dollars from the estate of J.B. Cubish, Daffy and his pals Bugs Bunny and Porky Pig open up a ghost-busting service to stop Cubish's ghost from reclaiming the money. Included is &quot;The Duxorcist,&quot; the classic parody of &quot;The Exorcist.&quot;\n\nVideo\nID                                       : 2\nFormat                                   : AVC\nFormat/Info                              : Advanced Video Codec\nFormat profile                           : &lt;a class=&quot;__cf_email__&quot; href=&quot;/cdn-cgi/l/email-protection&quot; data-cfemail=&quot;296b485a4c4540474c69651a0719&quot;&gt;[email&amp;#160;protected]&lt;/a&gt;&lt;script cf-hash='f9e31' type=&quot;text/javascript&quot;&gt;\n/* &lt;![CDATA[ */!function(){try{var t=&quot;currentScript&quot;in document?document.currentScript:function(){for(var t=document.getElementsByTagName(&quot;script&quot;),e=t.length;e--;)if(t[e].getAttribute(&quot;cf-hash&quot;))return t[e]}();if(t&amp;&amp;t.previousSibling){var e,r,n,i,c=t.previousSibling,a=c.getAttribute(&quot;data-cfemail&quot;);if(a){for(e=&quot;&quot;,r=parseInt(a.substr(0,2),16),n=2;a.length-n;n+=2)i=parseInt(a.substr(n,2),16)^r,e+=String.fromCharCode(i);e=document.createTextNode(e),c.parentNode.replaceChild(e,c)}}}catch(u){}}();/* ]]&gt; */&lt;/script&gt;\nFormat settings, CABAC                   : No\nFormat settings, ReFrames                : 3 frames\nCodec ID                                 : avc1\nCodec ID/Info                            : Advanced Video Coding\nDuration                                 : 1h 18mn\nBit rate                                 : 1 922 Kbps\nWidth                                    : 636 pixels\nHeight                                   : 476 pixels\nDisplay aspect ratio                     : 4:3\nFrame rate mode                          : Constant\nFrame rate                               : 23.976 fps\nColor space                              : YUV\nChroma subsampling                       : 4:2:0\nBit depth                                : 8 bits\nScan type                                : Progressive\nBits/(Pixel*Frame)                       : 0.265\nStream size                              : 1.06 GiB (95%)\nWriting library                          : x264 core 135\nEncoding settings                        : cabac=0 / ref=3 / deblock=1:0:0 / \n\nAudio\nID                                       : 1\nFormat                                   : AAC\nFormat/Info                              : Advanced Audio Codec\nFormat profile                           : LC\nCodec ID                                 : 40\nDuration                                 : 1h 18mn\nBit rate mode                            : Variable\nBit rate                                 : 89.9 Kbps\nMaximum bit rate                         : 120 Kbps\nChannel(s)                               : 2 channels\nChannel positions                        : Front: L R\nSampling rate                            : 44.1 KHz\nCompression mode                         : Lossy\nStream size                              : 50.8 MiB (4%)\nLanguage                                 : English\n\n\n\n\nRuntime: 1 Hour 18 Minutes Contains bonus footage","torrent":{"xt":"urn:btih:7f8c55e069050898c690caa3f54a16fd0093ee13","amp;dn":"+Daffy+Duck%27s+Quackbusters+%281988%29+DVD+RIP+","amp;tr":["udp%3A%2F%2Ftracker.openbittorrent.com%3A80","udp%3A%2F%2Fopen.demonii.com%3A1337","udp%3A%2F%2Ftracker.coppersurfer.tk%3A6969","udp%3A%2F%2Fexodus.desync.com%3A6969"],"infoHash":"7f8c55e069050898c690caa3f54a16fd0093ee13","infoHashBuffer":{"type":"Buffer","data":[127,140,85,224,105,5,8,152,198,144,202,163,245,74,22,253,0,147,238,19]},"announce":[],"urlList":[]}}